<svg width="1440" height="1296" viewBox="0 0 1440 1296" fill="none" xmlns="http://www.w3.org/2000/svg">
<path d="M-23 28.5266C56.682 2.72941 148.875 5.86691 233.782 20.2907C318.712 34.758 399.495 59.8145 483.371 77.2014C567.247 94.5884 657.378 104.132 741.324 86.919C799.241 75.0226 850.808 51.1428 904.484 31.4027C958.159 11.6626 1017.62 -4.4607 1077.3 1.11708C1123.83 5.47472 1166.02 22.6002 1206.58 39.7257C1247.13 56.8513 1288.56 74.6304 1334.76 80.6004C1380.96 86.5704 1433.81 78.073 1462 50.8377V603.473C1382.32 629.271 1290.12 626.133 1205.22 611.709C1120.29 597.242 1039.5 572.186 955.629 554.799C871.753 537.412 781.622 527.868 697.676 545.081C639.759 556.977 588.192 580.857 534.516 600.597C480.841 620.337 421.378 636.461 361.704 630.883C315.174 626.525 272.978 609.4 232.423 592.274C191.867 575.149 150.445 557.37 104.243 551.4C58.0409 545.43 5.18508 553.927 -23 581.162L-23 28.5266Z" fill="#D9EADD"/>
<path d="M0 692.527C78.1259 666.729 168.519 669.867 251.767 684.291C335.039 698.758 414.244 723.814 496.482 741.201C578.72 758.588 667.091 768.132 749.398 750.919C806.183 739.023 856.743 715.143 909.371 695.403C961.999 675.663 1020.3 659.539 1078.81 665.117C1124.43 669.475 1165.8 686.6 1205.57 703.726C1245.33 720.851 1285.94 738.63 1331.24 744.6C1376.54 750.57 1428.37 742.073 1456 714.838V1267.47C1377.87 1293.27 1287.48 1290.13 1204.23 1275.71C1120.96 1261.24 1041.76 1236.19 959.518 1218.8C877.28 1201.41 788.909 1191.87 706.602 1209.08C649.817 1220.98 599.256 1244.86 546.629 1264.6C494.001 1284.34 435.7 1300.46 377.191 1294.88C331.57 1290.53 290.198 1273.4 250.435 1256.27C210.671 1239.15 170.058 1221.37 124.758 1215.4C79.4583 1209.43 27.6347 1217.93 0 1245.16L0 692.527Z" fill="#D9EADD"/>
<path d="M1 396.527C78.2674 370.729 167.667 373.867 250.001 388.291C332.357 402.758 410.692 427.814 492.026 445.201C573.36 462.588 660.761 472.132 742.163 454.919C798.324 443.023 848.329 419.143 900.378 399.403C952.427 379.663 1010.09 363.539 1067.95 369.117C1113.07 373.475 1153.99 390.6 1193.32 407.726C1232.64 424.851 1272.81 442.63 1317.61 448.6C1362.41 454.57 1413.67 446.073 1441 418.838V971.473C1363.73 997.271 1274.33 994.133 1192 979.709C1109.64 965.242 1031.31 940.186 949.974 922.799C868.64 905.412 781.239 895.868 699.837 913.081C643.676 924.977 593.671 948.857 541.622 968.597C489.573 988.337 431.912 1004.46 374.046 998.883C328.926 994.525 288.009 977.4 248.683 960.274C209.356 943.149 169.189 925.37 124.387 919.4C79.5851 913.43 28.331 921.927 1 949.162L1 396.527Z" fill="#D9EADD"/>
</svg>
